<?xml version="1.0" encoding="iso-8859-1"?>
<!-- Generator: Adobe Illustrator 19.0.0, SVG Export Plug-In . SVG Version: 6.00 Build 0)  -->
<svg version="1.1" id="Capa_1" xmlns="http://www.w3.org/2000/svg" xmlns:xlink="http://www.w3.org/1999/xlink" x="0px" y="0px"
	 viewBox="0 0 511.999 511.999" style="enable-background:new 0 0 511.999 511.999;" xml:space="preserve">
<g>
	<path style="fill:#EDCAA6;" d="M103.45,133.678c-10.51,0-19.03,8.52-19.03,19.03v14.67c0,10.51,8.52,19.03,19.03,19.03h10.717
		l-0.026-52.73H103.45z"/>
	<path style="fill:#EDCAA6;" d="M321.118,167.377v-14.67c0-10.51-8.52-19.03-19.03-19.03h-10.691l-0.026,52.73h10.717
		C312.598,186.407,321.118,177.887,321.118,167.377z"/>
</g>
<path style="fill:#FFE7CF;" d="M338.857,329.921l-73.853-13.719c-9.48-1.905-16.3-12.902-16.3-22.572v-43.09H202.77h-0.001h-45.934
	v43.09c0,9.67-6.82,20.667-16.3,22.572l-73.853,13.719c-35.128,10.343-59.247,42.587-59.247,79.206v82.225
	c0,6.024,4.883,10.907,10.907,10.907h368.855c6.024,0,10.907-4.883,10.907-10.907v-82.225
	C398.103,372.509,373.984,340.264,338.857,329.921z"/>
<path style="fill:#EDEDED;" d="M196.559,471.265L196.559,471.265L196.559,471.265z"/>
<path style="fill:#FFE7CF;" d="M298.336,115.744v-1.804c0-25.824-10.602-50.847-30.171-67.697
	c-15.342-13.211-36.908-24.741-65.397-25.059c-28.488,0.318-50.054,11.848-65.397,25.059C117.802,63.093,107.2,88.116,107.2,113.94
	v1.804c0,0,0.045,71.539,0.059,82.814c0.021,17.751,8.083,34.541,21.925,45.654l44.162,35.455c4.372,3.51,9.811,5.423,15.418,5.423
	h28.007c5.608,0,11.046-1.912,15.418-5.424c8.589-6.898,23.961-19.242,37.713-30.286c17.908-14.381,28.339-36.094,28.378-59.061
	C298.293,183.003,298.336,115.744,298.336,115.744z"/>
<path style="fill:#F4D3A6;" d="M268.166,46.243c-15.342-13.211-36.908-24.741-65.397-25.059c-7.129,0.079-13.824,0.861-20.097,2.196
	c18.795,3.998,33.797,12.959,45.3,22.864c19.569,16.85,30.171,41.873,30.171,67.697v1.804c0,0-0.043,67.258-0.055,74.576
	c-0.039,22.967-10.471,44.68-28.378,59.061c-13.752,11.044-29.124,23.388-37.713,30.286c-2.759,2.215-5.942,3.79-9.324,4.654
	c1.978,0.505,4.023,0.77,6.092,0.77h28.007c5.608,0,11.046-1.912,15.418-5.423c8.589-6.898,23.961-19.242,37.713-30.286
	c17.908-14.381,28.34-36.093,28.378-59.061c0.012-7.318,0.055-74.576,0.055-74.576v-1.804
	C298.336,88.116,287.735,63.093,268.166,46.243z"/>
<path style="fill:#423E38;" d="M338.857,329.921l-73.853-13.719l0,0c-34.701,33.565-89.768,33.565-124.469,0l0,0l-73.853,13.719
	c-35.128,10.343-59.247,42.587-59.247,79.207v82.225c0,6.024,4.883,10.907,10.907,10.907h368.855
	c6.024,0,10.907-4.883,10.907-10.907v-82.225C398.103,372.509,373.984,340.264,338.857,329.921z"/>
<path style="fill:#3F3F3E;" d="M370.647,347.639c-0.813-0.729-1.641-1.442-2.484-2.14c-1.685-1.395-3.43-2.726-5.23-3.988
	c-2.7-1.894-5.526-3.633-8.467-5.204c-4.901-2.619-10.121-4.769-15.61-6.385l-73.853-13.719l0,0l0,0
	c-10.404,10.064-22.646,17.087-35.614,21.116l69.57,12.923c35.128,10.343,59.247,42.587,59.247,79.206v72.812h28.99
	c1.882,0,3.653-0.477,5.199-1.316c0.309-0.168,0.609-0.35,0.899-0.546c1.741-1.176,3.124-2.841,3.952-4.799
	c0.552-1.305,0.857-2.739,0.857-4.245v-82.225C398.103,385.096,387.716,362.949,370.647,347.639z"/>
<path style="fill:#332F2A;" d="M330.3,286.04c-10.934-14.301-46.487-24.935-63.611-34.08c-6.043,4.853-12.262,9.847-17.986,14.444
	v27.225c0,9.67,6.82,20.666,16.3,22.572c-34.701,33.565-89.768,33.565-124.469,0c9.48-1.905,16.3-12.902,16.3-22.572v-27.22
	l-17.994-14.446c-17.126,9.144-52.672,19.777-63.604,34.076c-7.637,9.989-8.054,24.472-2.448,35.057
	c3.744,7.069,15.664,14.386,30.864,21.253c62.933,28.432,135.295,28.432,198.228,0.001c15.201-6.867,27.122-14.185,30.866-21.254
	C338.354,310.513,337.938,296.031,330.3,286.04z"/>
<path style="fill:#28231E;" d="M330.301,286.04c-10.934-14.301-46.487-24.935-63.611-34.08c-4.767,3.828-9.634,7.737-14.291,11.477
	c15.244,6.497,31.116,13.865,37.797,22.603c7.637,9.989,8.054,24.472,2.448,35.057c-3.744,7.069-15.665,14.387-30.866,21.254
	c-25.242,11.403-52.002,18.221-79.061,20.477c40.404,3.368,81.475-3.45,119.166-20.477c15.201-6.867,27.122-14.185,30.866-21.254
	C338.354,310.513,337.938,296.031,330.301,286.04z"/>
<g>
	<path style="fill:#2D5872;" d="M177.456,184.857h-30.364c-7.327,0-13.267-5.94-13.267-13.267v-18.452h56.898v18.452
		C190.723,178.917,184.783,184.857,177.456,184.857z"/>
	<path style="fill:#2D5872;" d="M258.42,184.857h-30.364c-7.327,0-13.267-5.94-13.267-13.267v-18.452h56.898v18.452
		C271.688,178.917,265.748,184.857,258.42,184.857z"/>
</g>
<path style="fill:#8AC129;" d="M412.797,282.439c-4.992-14.534,5.637-37.273,14.525-48.61c3.588-4.576,0.199-11.265-5.615-11.127
	l-61.067,1.456c-5.813,0.139-8.88,6.982-5.078,11.382c9.418,10.901,21.118,33.107,16.825,47.862
	c-70.425,60.374-86.084,96.51-84.922,145.208c1.005,42.158,37.68,74.75,79.838,73.745l30.505-0.728l30.505-0.728
	c42.158-1.005,77.237-35.309,76.232-77.467C503.383,374.736,486.02,339.387,412.797,282.439z"/>
<path style="fill:#7DA820;" d="M412.797,282.439c-4.992-14.534,5.637-37.273,14.525-48.61c3.588-4.576,0.199-11.265-5.615-11.127
	l-20.35,0.485c-8.427,13.796-17.832,43.551-13.291,56.775c73.223,56.948,74.922,94.773,76.083,143.47
	c1.005,42.158-34.073,76.462-76.232,77.467l-30.505,0.728l-2.383,0.057c4.02,0.531,8.118,0.77,12.273,0.671l30.505-0.727
	l30.505-0.728c42.158-1.005,77.237-35.309,76.232-77.467C503.383,374.736,486.02,339.387,412.797,282.439z"/>
<path style="fill:#93D632;" d="M420.304,289.94c-18.458,4.44-36.442,4.868-55.086,1.313c-6.712-1.28-10.955-7.966-9.343-14.605l0,0
	c1.497-6.167,7.541-10.097,13.787-8.97c15.338,2.766,29.891,2.419,45.08-1.075c6.185-1.423,12.409,2.214,14.198,8.303l0,0
	C430.867,281.462,426.947,288.342,420.304,289.94z"/>
<path style="fill:#423E38;" d="M297.942,197.305c-0.318,0.057-0.636,0.116-0.957,0.165l-46.102,7.019
	c-34.978,5.325-70.576,5.127-105.492-0.589l-36.936-6.047c-0.404-0.066-0.795-0.164-1.194-0.242c0,0.347,0.001,0.67,0.001,0.947
	c0.021,17.751,8.083,34.541,21.925,45.654l44.162,35.455c4.372,3.51,9.811,5.423,15.418,5.423h28.007
	c5.608,0,11.046-1.912,15.418-5.423c8.589-6.898,23.961-19.242,37.713-30.286C285.983,236.468,296.029,217.642,297.942,197.305z"/>
<path style="fill:#332F2A;" d="M272.953,246.792c0.841-0.752,1.661-1.523,2.465-2.308c0.135-0.132,0.27-0.263,0.404-0.396
	c0.789-0.783,1.56-1.581,2.312-2.395c0.122-0.132,0.242-0.265,0.362-0.397c0.763-0.838,1.509-1.689,2.231-2.557
	c0.071-0.085,0.14-0.173,0.211-0.259c1.52-1.844,2.949-3.754,4.282-5.724c0.057-0.085,0.117-0.169,0.174-0.254
	c0.642-0.957,1.26-1.93,1.858-2.914c0.069-0.113,0.138-0.226,0.206-0.34c0.592-0.987,1.162-1.986,1.708-2.998
	c0.052-0.096,0.103-0.193,0.154-0.29c0.56-1.049,1.099-2.11,1.609-3.184c0.008-0.016,0.015-0.032,0.023-0.049
	c1.065-2.246,2.02-4.545,2.86-6.887c0.009-0.024,0.018-0.048,0.027-0.073c0.41-1.146,0.791-2.303,1.146-3.469
	c0.018-0.059,0.036-0.117,0.054-0.176c0.352-1.166,0.677-2.341,0.972-3.524c0.008-0.034,0.016-0.067,0.025-0.101
	c0.909-3.659,1.55-7.399,1.907-11.192c-0.318,0.057-0.636,0.116-0.957,0.165l-40.09,6.104
	c-3.206,17.906-12.771,34.232-27.185,45.807c-13.752,11.044-29.124,23.388-37.713,30.286c-2.759,2.215-5.942,3.79-9.324,4.654l0,0
	c0.562,0.144,1.131,0.263,1.703,0.366c0.215,0.039,0.432,0.07,0.649,0.103c0.423,0.065,0.849,0.121,1.276,0.164
	c0.2,0.02,0.4,0.042,0.601,0.057c0.618,0.047,1.239,0.079,1.862,0.079h28.007c5.608,0,11.046-1.912,15.418-5.423
	c8.589-6.898,23.961-19.242,37.713-30.286c0.93-0.747,1.834-1.517,2.723-2.303C272.734,246.982,272.845,246.888,272.953,246.792z"/>
<path style="fill:#F4D3A6;" d="M252.271,306.212c-0.97-1.657-1.763-3.427-2.354-5.243c-0.787-2.42-1.214-4.921-1.214-7.338v-27.225
	c-6.472,5.197-12.308,9.884-16.514,13.262c-4.373,3.511-9.81,5.423-15.418,5.423h-9.112v26.382c0,9.67,6.82,20.666,16.3,22.572
	l9.744,1.81c11.362-4.178,22.057-10.712,31.299-19.652C259.671,315.131,255.18,311.182,252.271,306.212z"/>
<path style="fill:#423E38;" d="M202.618,9.623V9.622c-0.006,0-0.012,0-0.018,0.001c-0.006,0-0.012-0.001-0.018-0.001v0.001
	C135.151,11.297,98.147,84.84,98.147,113.378v2.019c0,0,0.002,3.737,0.006,9.716h104.43h0.035h104.43
	c0.004-5.979,0.006-9.716,0.006-9.716v-2.019C307.054,84.84,270.05,11.297,202.618,9.623z"/>
<path style="fill:#332F2A;" d="M202.618,9.623V9.622c-0.006,0-0.012,0-0.018,0.001c-0.006,0-0.012-0.001-0.018-0.001v0.001
	c-7.153,0.178-13.96,1.171-20.42,2.827c54.442,13.95,84.016,75.417,84.016,100.928v2.019c0,0-0.002,3.737-0.006,9.716h40.875
	c0.004-5.979,0.006-9.716,0.006-9.716v-2.019C307.054,84.84,270.05,11.297,202.618,9.623z"/>
<path id="SVGCleanerId_0" style="fill:#28231E;" d="M305.884,125.112H99.654c-7.319,0-13.252-5.933-13.252-13.252l0,0
	c0-7.319,5.933-13.252,13.252-13.252h206.231c7.319,0,13.252,5.933,13.252,13.252l0,0
	C319.136,119.179,313.203,125.112,305.884,125.112z"/>
<g>
	<path id="SVGCleanerId_0_1_" style="fill:#28231E;" d="M305.884,125.112H99.654c-7.319,0-13.252-5.933-13.252-13.252l0,0
		c0-7.319,5.933-13.252,13.252-13.252h206.231c7.319,0,13.252,5.933,13.252,13.252l0,0
		C319.136,119.179,313.203,125.112,305.884,125.112z"/>
</g>
<path d="M399.512,394.859v-23.003c7.932,0.566,10.878,4.192,13.597,4.192c3.4,0,4.986-4.306,4.986-6.458
	c0-5.552-10.878-7.933-18.584-8.159v-3.06c0-1.359-1.7-2.606-3.4-2.606c-1.926,0-3.286,1.247-3.286,2.606v3.286
	c-10.765,1.134-21.53,6.799-21.53,21.077c0,14.504,11.331,18.584,21.53,22.21v26.63c-11.558-0.907-14.618-8.839-18.357-8.839
	c-2.833,0-5.213,3.739-5.213,6.458c0,5.553,9.518,13.145,23.57,13.372v3.513c0,1.36,1.36,2.606,3.286,2.606
	c1.7,0,3.4-1.246,3.4-2.606v-3.853c12.237-1.7,20.623-9.406,20.623-23.343C420.135,403.471,409.37,398.486,399.512,394.859z
	 M393.505,392.706c-6.005-2.266-10.878-4.645-10.878-11.105c0-5.892,4.533-8.726,10.878-9.518V392.706z M398.831,431.346v-23.91
	c5.552,2.38,9.972,5.553,9.972,12.692C408.803,426.587,404.951,430.214,398.831,431.346z"/>
<path d="M493.772,355.036c-12.044-20.516-31.347-41.505-60.409-65.623c0.308-0.444,0.61-0.893,0.884-1.367
	c2.657-4.593,3.322-10.147,1.827-15.237c-2.027-6.897-7.6-11.848-14.189-13.412c2.891-8.17,7.42-16.05,11.288-20.983
	c3.446-4.396,4.03-10.232,1.522-15.231c-2.515-5.016-7.591-8.021-13.165-7.913l-61.068,1.456
	c-5.605,0.135-10.499,3.404-12.772,8.534c-2.266,5.113-1.405,10.914,2.247,15.14c4.097,4.743,8.995,12.396,12.272,20.417
	c-6.517,1.871-11.86,7.084-13.558,14.077c-1.252,5.156-0.321,10.673,2.552,15.135c0.299,0.464,0.625,0.903,0.957,1.335
	c-2.991,2.734-5.871,5.426-8.644,8.08c-0.934-6.54-3.388-12.79-7.309-17.919c-8.757-11.453-28.947-19.953-46.76-27.452
	c-3.186-1.341-6.282-2.647-9.188-3.917c15.447-14.873,24.515-34.994,25.382-56.559c12.918-1.741,22.913-12.831,22.913-26.219v-14.67
	c0-9.602-5.141-18.024-12.814-22.663c6.447-3.508,10.832-10.344,10.832-18.185c0-9.832-6.903-18.07-16.112-20.159
	c-2.514-7.783-6.08-15.945-10.483-23.897c-1.99-3.59-6.512-4.888-10.106-2.902c-3.591,1.989-4.89,6.514-2.902,10.106
	c2.984,5.387,5.537,10.854,7.563,16.166H110.666c11.879-31.253,43.717-72.803,91.899-74.116
	c30.251,0.798,52.068,17.434,65.047,31.259c2.81,2.996,7.515,3.142,10.508,0.332c2.994-2.81,3.142-7.515,0.332-10.508
	C257.028,15.32,230.869,2.887,202.804,2.189c-0.161-0.003-0.319-0.002-0.484,0.004c-0.004,0-0.009,0.001-0.014,0.001
	c-27.508,0.708-53.245,12.727-74.432,34.764c-14.867,15.464-27.01,35.635-33.167,54.839c-9.021,2.226-15.739,10.365-15.739,20.063
	c0,7.841,4.385,14.677,10.831,18.184c-7.673,4.639-12.814,13.061-12.814,22.663v14.67c0,13.361,9.955,24.434,22.836,26.209
	c0.002,2.163,0.003,3.867,0.005,4.981c0.024,20.107,9.028,38.857,24.704,51.443l0.382,0.306c-2.8,1.219-5.769,2.472-8.821,3.756
	c-17.813,7.499-38.004,15.999-46.76,27.452c-8.589,11.234-10.136,27.827-4.053,41.098c-0.235,0.045-0.468,0.099-0.696,0.167
	c-18.788,5.531-34.918,16.745-46.65,32.428S0,389.542,0,409.128v4.684c0,4.106,3.328,7.434,7.434,7.434s7.434-3.328,7.434-7.434
	v-4.684c0-16.349,5.177-31.912,14.969-45.004c9.719-12.991,23.055-22.309,38.585-26.965l8.084-1.501
	c5.796,4.36,13.728,8.789,24.086,13.468c32.469,14.669,67.315,22.003,102.174,22.002c32.987-0.002,65.982-6.583,96.947-19.723
	c-1.712,2.81-3.295,5.6-4.751,8.375c-10.966,20.905-15.571,42.188-14.931,69.007c0.531,22.291,10.087,43.022,26.906,58.373
	c3.071,2.803,6.314,5.358,9.699,7.665H72.655v-63.142c0-4.106-3.328-7.434-7.434-7.434s-7.434,3.328-7.434,7.434v63.142H18.342
	c-1.915,0-3.473-1.557-3.473-3.472v-42.702c0-4.106-3.328-7.434-7.434-7.434S0,444.545,0,448.651v42.702
	c0,10.113,8.228,18.341,18.342,18.341h342.602c1.47,0.074,2.945,0.119,4.426,0.119c0.701,0,1.406-0.009,2.109-0.025l61.011-1.455
	c22.465-0.535,43.558-9.587,59.392-25.487c16.07-16.135,24.626-37.298,24.094-59.589
	C511.337,396.435,505.722,375.396,493.772,355.036z M421.809,277.002c0.358,1.221,0.204,2.499-0.433,3.6
	c-0.311,0.538-0.986,1.431-2.201,1.914c-0.027,0.01-0.054,0.015-0.081,0.025c-0.06,0.023-0.111,0.039-0.165,0.058
	c-0.116,0.038-0.228,0.079-0.353,0.109c-0.002,0-0.004,0.001-0.006,0.002c-0.003,0.001-0.006,0.002-0.009,0.003
	c-17.388,4.182-34.381,4.587-51.949,1.239c-0.003,0-0.008-0.002-0.011-0.002c-0.122-0.024-0.232-0.058-0.346-0.09
	c-0.056-0.016-0.108-0.031-0.169-0.051c-0.031-0.01-0.064-0.014-0.095-0.024c-1.237-0.424-1.954-1.285-2.289-1.807
	c-0.689-1.07-0.904-2.341-0.604-3.577c0.502-2.07,2.365-3.48,4.431-3.48c0.268,0,0.54,0.023,0.812,0.073
	c0.894,0.161,1.785,0.308,2.676,0.449c0.023,0.004,0.045,0.008,0.068,0.011c14.356,2.267,28.34,1.935,42.574-1.01
	c0.091-0.019,0.183-0.037,0.273-0.059c0.825-0.173,1.649-0.348,2.476-0.538C418.763,273.31,421.13,274.693,421.809,277.002z
	 M361.936,231.563l58.828-1.403c-5.292,7.013-11.737,18.46-14.85,30.599c-9.293,1.513-18.333,1.73-27.686,0.664
	C374.541,249.446,367.557,238.317,361.936,231.563z M313.684,167.377c0,5.124-3.341,9.481-7.957,11.011
	c0.007-8.079,0.015-18.965,0.022-29.409c0.001-0.058,0.009-0.113,0.009-0.171c0-0.056-0.007-0.111-0.008-0.166
	c0.002-2.351,0.003-4.673,0.005-6.936c4.604,1.538,7.93,5.888,7.93,11.002v14.669H313.684z M91.854,167.377v-14.67
	c0-5.114,3.327-9.464,7.931-11.002c0.001,2.247,0.003,4.565,0.005,6.926c-0.001,0.06-0.009,0.117-0.009,0.177
	c0,0.061,0.008,0.121,0.009,0.182c0.007,9.885,0.014,20.453,0.02,29.398C95.193,176.858,91.854,172.501,91.854,167.377z
	 M99.653,117.678L99.653,117.678c-3.207,0-5.817-2.61-5.817-5.818s2.61-5.818,5.817-5.818l0,0c0.015,0,0,0,0.015,0
	c0.012,0-0.027,0-0.015,0h206.22c0.012,0,0,0,0.012,0c0.015,0-0.027,0-0.012,0h0.012c3.208,0,5.818,2.61,5.818,5.818
	s-2.61,5.818-5.818,5.818l0,0c-0.002,0,0,0-0.002,0H99.653C99.652,117.678,99.654,117.678,99.653,117.678z M114.651,138.843
	l-0.004-6.297h176.244c0,0.375,0-0.382,0,0l0,0c-0.002,2.434-0.004,6.151-0.006,8.828H114.653
	C114.653,140.52,114.652,139.673,114.651,138.843z M264.253,160.571v11.018c0,3.217-2.617,5.833-5.833,5.833h-30.363
	c-3.217,0-5.833-2.617-5.833-5.833V160.57L264.253,160.571L264.253,160.571z M183.289,160.571v11.018
	c0,3.217-2.617,5.833-5.833,5.833h-30.364c-3.217,0-5.833-2.617-5.833-5.833V160.57L183.289,160.571L183.289,160.571z
	 M114.684,186.403v-0.001l-0.021-30.159h11.727v15.347c0,11.415,9.287,20.702,20.702,20.702h30.364
	c11.415,0,20.702-9.287,20.702-20.702v-15.347h9.198v15.347c0,11.415,9.287,20.702,20.702,20.702h30.363
	c11.415,0,20.702-9.287,20.702-20.702v-15.347h11.753c-0.008,11.864-0.017,23.332-0.023,29.661
	c-0.002,2.071-0.004,3.603-0.005,4.404c0,0.194-0.015,0.385-0.017,0.579l-41.066,6.252c-34.263,5.217-68.975,5.021-103.172-0.576
	l-31.903-5.222C114.687,189.842,114.685,188.189,114.684,186.403z M115.333,206.513l28.856,4.724
	c18.505,3.03,37.154,4.545,55.806,4.545c17.37,0,34.743-1.315,52.007-3.943l36.952-5.626c-3.489,14.603-11.703,27.734-23.706,37.373
	l-3.193,2.564c-0.026,0.021-0.053,0.042-0.079,0.063l-34.441,27.658c-3.04,2.442-6.863,3.787-10.763,3.787h-28.006
	c-3.899,0-7.723-1.345-10.764-3.787L143.56,246.22c-0.029-0.023-0.058-0.046-0.087-0.07l-9.633-7.734
	C123.791,230.349,117.294,219.009,115.333,206.513z M247.176,312.045c1.436,2.083,3.057,3.928,4.823,5.507
	c-14.14,10.63-31.284,16.39-49.229,16.39s-35.09-5.761-49.229-16.39c1.766-1.579,3.387-3.424,4.823-5.507
	c3.754-5.451,5.907-12.163,5.907-18.415v-11.717l4.424,3.552c5.672,4.553,12.801,7.061,20.072,7.061h28.006
	c7.274,0,14.403-2.508,20.073-7.062l4.425-3.553v11.72C241.269,299.882,243.422,306.595,247.176,312.045z M298.821,335.577
	c-61.045,27.576-131.066,27.578-192.106-0.001c-21.169-9.564-26.182-15.744-27.355-17.958c-4.484-8.464-3.734-19.846,1.783-27.061
	c6.357-8.314,25.409-16.335,40.718-22.78c5.764-2.427,11.286-4.752,16.048-7.026l11.491,9.225v23.653
	c0,6.789-5.021,14.217-10.331,15.285c-2.708,0.544-4.891,2.546-5.669,5.196c-0.777,2.651-0.02,5.515,1.965,7.435
	c18.177,17.582,42.115,27.265,67.403,27.265s49.226-9.683,67.403-27.265c1.985-1.921,2.742-4.784,1.965-7.435
	c-0.777-2.65-2.96-4.652-5.669-5.196c-5.31-1.068-10.331-8.496-10.331-15.285v-23.66l11.484-9.222
	c4.764,2.276,10.289,4.602,16.055,7.03c15.309,6.445,34.361,14.465,40.718,22.78c5.27,6.892,6.178,17.58,2.343,25.901
	c-1.087,2.531-3.287,4.545-6.349,7.089C316.377,326.601,309.759,330.635,298.821,335.577z M477.348,472.353
	c-13.118,13.172-30.595,20.672-49.212,21.115l-61.011,1.455c-1.667,0.041-3.325,0.005-4.976-0.067
	c-0.203-0.017-0.406-0.031-0.613-0.031h-0.047c-16.553-0.874-32.189-7.385-44.527-18.646
	c-13.796-12.592-21.632-29.547-22.065-47.745c-0.76-31.855,5.571-58.761,35.879-94.139c4.355-5.546,8.237-9.193,8.237-9.193
	c7.662-8.198,16.58-16.871,26.934-26.165c8.042,1.413,15.985,2.129,23.9,2.129c10.028,0,20.017-1.151,30.111-3.426
	c63.475,51.725,76.162,84.338,77.154,125.972C497.547,441.809,490.527,459.12,477.348,472.353z"/>
<g>
</g>
<g>
</g>
<g>
</g>
<g>
</g>
<g>
</g>
<g>
</g>
<g>
</g>
<g>
</g>
<g>
</g>
<g>
</g>
<g>
</g>
<g>
</g>
<g>
</g>
<g>
</g>
<g>
</g>
</svg>
