<svg id="Capa_1" enable-background="new 0 0 512 512" height="512" viewBox="0 0 512 512" width="512" xmlns="http://www.w3.org/2000/svg"><g><g><g><path d="m89.791 426.035c-.003.018-.001.035-.003.053 5.984-6.356 14.248-10.532 23.489-11.225-1.217-3.613-1.887-7.478-1.887-11.501 0-12.625 6.501-23.726 16.334-30.156v-80.523c-10.778.599-21.753-3.198-29.987-11.431-6.496-6.496-10.241-14.7-11.238-23.167-.25-2.125-2.529-3.306-4.413-2.292-21.013 11.309-46.172 12.143-67.794 2.492-2.563-1.144-5.143 1.436-3.999 4 9.635 21.59 8.819 46.705-2.442 67.698-1.012 1.888.261 4.163 2.387 4.416 8.45 1.006 16.635 4.749 23.119 11.233 8.48 8.48 12.269 19.87 11.379 30.956-.148 1.841 1.385 3.374 3.226 3.226 11.086-.889 22.476 2.899 30.956 11.379 9.476 9.477 13.095 22.585 10.873 34.842z" fill="#46cc8d"/></g><g><path d="m89.791 426.035c-.003.018-.001.035-.003.053 5.984-6.356 14.248-10.532 23.489-11.225-1.217-3.613-1.887-7.478-1.887-11.501 0-8.585 3.009-16.465 8.023-22.653-1.167-1.586-2.451-3.113-3.886-4.548-8.48-8.48-19.87-12.269-30.956-11.379-1.841.148-3.374-1.385-3.226-3.226.889-11.086-2.899-22.476-11.379-30.956-6.484-6.484-14.669-10.227-23.119-11.233-2.127-.253-3.4-2.529-2.387-4.416 8.335-15.54 10.942-33.337 7.829-50.292-12.879 1.109-25.983-1.011-37.996-6.373-2.563-1.144-5.143 1.436-3.999 4 9.635 21.59 8.819 46.705-2.442 67.698-1.012 1.888.261 4.163 2.387 4.416 8.45 1.006 16.635 4.749 23.119 11.233 8.48 8.48 12.269 19.87 11.379 30.956-.148 1.841 1.385 3.374 3.226 3.226 11.086-.889 22.476 2.899 30.956 11.379 9.475 9.476 13.094 22.584 10.872 34.841z" fill="#00c27a"/></g></g><g><path d="m268.03 146.03c12.262-14.166 15.899-35.417 5.218-53.917l-37.754-65.393c-1.155-2-4.041-2-5.196 0l-37.755 65.393c-10.681 18.5-7.044 39.751 5.218 53.917z" fill="#fedf30"/><path d="m229.21 146.03c-12.266-14.166-15.91-35.415-5.227-53.917l24.633-42.665-13.122-22.728c-1.155-2-4.041-2-5.196 0l-37.755 65.393c-10.681 18.5-7.044 39.751 5.218 53.917z" fill="#fed402"/><g><path d="m147.405 367.347c19.891 0 36.015 16.125 36.015 36.015 0 4.023-.67 7.888-1.887 11.501-.001 0-.001 0-.002 0 16.156 1.212 29.341 13.071 32.542 28.589h49.441v-145.98c0-2.761 2.239-5 5-5h65.038c-12.262-14.166-15.899-35.417-5.218-53.917l9.733-16.858v-70.667c0-2.761-2.239-5-5-5h-200.343c-2.761 0-5 2.239-5 5v222.177c5.658-3.701 12.416-5.86 19.681-5.86z" fill="#eef5f6"/></g><g><g><path d="m127.724 244.859 171.177-98.829h-55.305l-115.872 66.899z" fill="#08b865"/></g><g><path d="m147.405 367.347c8.402 0 16.125 2.885 22.251 7.707v-224.024c0-2.761 2.239-5 5-5h-41.932c-2.761 0-5 2.239-5 5v222.177c5.658-3.701 12.416-5.86 19.681-5.86z" fill="#deecf1"/></g><g><path d="m127.724 244.859 171.177-98.829h-55.305l-115.872 66.899z" fill="#fd4755"/></g><g><path d="m127.724 212.929v31.93l41.932-24.21v-31.93z" fill="#fb2b3a"/></g><g><path d="m127.724 321.491 210.344-121.441v-31.931l-210.344 121.442z" fill="#fd4755"/></g><g><path d="m127.724 289.561v31.93l41.932-24.209v-31.93z" fill="#fb2b3a"/></g><path d="m322.774 253.582-195.05 112.612v7.013c5.658-3.7 12.416-5.859 19.681-5.859 8.018 0 15.422 2.623 21.407 7.054l94.703-54.677v-22.253c0-2.761 2.239-5 5-5h42.204l16.441-9.492c-4.518-8.858-6.263-19.15-4.386-29.398z" fill="#fd4755"/><path d="m147.405 367.347c8.018 0 15.422 2.623 21.407 7.054l.844-.487v-31.93l-41.932 24.21v7.013c5.658-3.701 12.416-5.86 19.681-5.86z" fill="#fb2b3a"/><g><path d="m182.558 411.168c-.28 1.257-.618 2.491-1.024 3.695-.001 0-.001 0-.002 0 10.497.787 19.736 6.068 25.8 13.932l56.183-32.438v-31.93z" fill="#fd4755"/></g></g><g><path d="m402.94 293.472c12.969-14.152 17.035-35.978 6.1-54.917l-37.754-65.393c-1.155-2-4.042-2-5.196 0l-37.755 65.393c-10.935 18.939-6.869 40.765 6.1 54.917z" fill="#fedf30"/></g><g><path d="m366.096 293.472c-12.974-14.152-17.049-35.975-6.113-54.917l24.529-42.485-13.226-22.908c-1.155-2-4.042-2-5.196 0l-37.755 65.393c-10.935 18.939-6.869 40.765 6.1 54.917z" fill="#fed402"/></g><path d="m473.859 443.452v-145.98c0-2.761-2.239-5-5-5h-200.344c-2.761 0-5 2.239-5 5v145.98z" fill="#ffe5c2"/><path d="m312 443.452v-145.98c0-2.761 2.239-5 5-5h-48.485c-2.761 0-5 2.239-5 5v145.98z" fill="#fed2a4"/><path d="m499.393 443.452h-285.319c.487 2.362.744 4.807.744 7.313 0 11.563-5.455 21.845-13.925 28.434h298.5c2.82 0 5.107-2.286 5.107-5.107v-25.534c0-2.82-2.286-5.106-5.107-5.106z" fill="#fac600"/><path d="m260 474.093v-25.534c0-2.82 2.286-5.107 5.107-5.107h-51.033c.487 2.362.744 4.807.744 7.313 0 11.563-5.455 21.845-13.925 28.434h64.213c-2.82 0-5.106-2.286-5.106-5.106z" fill="#e8b800"/><g><path d="m263.515 356.636h210.344v49.033h-210.344z" fill="#08b865"/></g><g><path d="m263.515 356.636h48.485v49.032h-48.485z" fill="#09a755"/></g></g><path d="m116.007 414.75c13.481 0 25.224 7.412 31.398 18.378 6.174-10.966 17.917-18.378 31.398-18.378.92 0 1.828.046 2.731.114 1.217-3.613 1.887-7.478 1.887-11.501 0-19.891-16.125-36.015-36.015-36.015-19.891 0-36.015 16.125-36.015 36.015 0 4.023.67 7.888 1.887 11.501.901-.068 1.81-.114 2.729-.114z" fill="#fb2b3a"/><path d="m116.007 414.75c13.481 0 25.224 7.412 31.398 18.378 1.246-2.213 2.718-4.28 4.386-6.172-5.49-6.32-8.822-14.564-8.822-23.594 0-14.226 8.25-26.522 20.225-32.374-4.768-2.33-10.125-3.642-15.79-3.642-19.891 0-36.015 16.125-36.015 36.015 0 4.023.67 7.888 1.887 11.501.903-.066 1.812-.112 2.731-.112z" fill="#e41f2d"/><g><path d="m178.803 414.75c-13.481 0-25.224 7.412-31.398 18.378 2.935 5.214 4.617 11.228 4.617 17.637s-1.682 12.423-4.617 17.637c6.174 10.966 17.917 18.378 31.398 18.378 19.891 0 36.015-16.125 36.015-36.015s-16.124-36.015-36.015-36.015z" fill="#e41f2d"/><path d="m173.97 450.765c0-14.305 8.341-26.662 20.424-32.474-4.718-2.269-10.006-3.541-15.591-3.541-13.481 0-25.224 7.412-31.398 18.378 2.935 5.214 4.617 11.228 4.617 17.637s-1.682 12.423-4.617 17.637c6.174 10.966 17.917 18.378 31.398 18.378 5.585 0 10.873-1.272 15.591-3.541-12.084-5.812-20.424-18.168-20.424-32.474z" fill="#c41926"/><g><circle cx="116.007" cy="450.765" fill="#fd4755" r="36.015"/></g><g><path d="m111 450.765c0-14.339 8.381-26.719 20.511-32.513-4.696-2.243-9.953-3.502-15.504-3.502-19.891 0-36.015 16.125-36.015 36.015s16.125 36.015 36.015 36.015c5.551 0 10.808-1.258 15.504-3.502-12.13-5.794-20.511-18.174-20.511-32.513z" fill="#fb2b3a"/></g></g><path d="m499.394 435.952h-18.034v-138.48c0-6.893-5.607-12.5-12.5-12.5h-51.27c7.481-15.773 7.022-34.445-2.055-50.167l-37.754-65.392c-1.869-3.238-5.353-5.25-9.092-5.251-.001 0-.001 0-.002 0-3.738 0-7.223 2.011-9.094 5.25l-14.026 24.295v-42.677c0-6.893-5.607-12.5-12.5-12.5h-51.268c7.481-15.773 7.022-34.445-2.056-50.167l-37.754-65.393c-1.87-3.238-5.354-5.25-9.093-5.25s-7.224 2.012-9.093 5.25l-37.754 65.393c-9.077 15.722-9.536 34.394-2.055 50.167h-51.269c-6.893 0-12.5 5.607-12.5 12.5v133.768c-6.451-1.086-12.466-4.131-17.183-8.849-5.105-5.106-8.25-11.586-9.093-18.742-.408-3.466-2.494-6.493-5.578-8.098-3.085-1.605-6.764-1.575-9.838.079-18.797 10.116-41.669 10.957-61.183 2.248-4.029-1.799-8.642-.954-11.75 2.155-3.108 3.108-3.954 7.72-2.155 11.75 8.693 19.479 7.87 42.319-2.201 61.096-1.635 3.047-1.657 6.701-.058 9.773 1.62 3.113 4.673 5.22 8.167 5.636 7.139.851 13.606 3.993 18.702 9.089 6.599 6.599 9.955 15.73 9.207 25.054-.246 3.072.862 6.083 3.041 8.261 2.178 2.178 5.188 3.286 8.262 3.04 9.319-.752 18.454 2.607 25.053 9.206 6.922 6.923 10.242 16.64 9.078 26.316-6.362 7.564-10.201 17.316-10.201 27.952 0 23.994 19.521 43.515 43.515 43.515 12.331 0 23.471-5.164 31.397-13.432 7.925 8.27 19.068 13.432 31.399 13.432 9.083 0 17.521-2.802 24.504-7.581h86.69c4.143 0 7.5-3.358 7.5-7.5s-3.357-7.5-7.5-7.5h-73.063c3.397-6.164 5.345-13.233 5.377-20.748h274.686v20.748h-172c-4.143 0-7.5 3.358-7.5 7.5s3.357 7.5 7.5 7.5h174.394c6.951 0 12.606-5.655 12.606-12.606v-25.534c0-6.951-5.655-12.606-12.606-12.606zm-164.564-193.648 33.857-58.643 33.857 58.643c7.838 13.576 6.769 30.199-2.354 42.667h-24.003v-29.776c0-4.142-3.357-7.5-7.5-7.5s-7.5 3.358-7.5 7.5v29.776h-24.004c-9.122-12.467-10.191-29.091-2.353-42.667zm-135.792-146.442 33.857-58.643 33.857 58.643c7.838 13.576 6.769 30.199-2.353 42.667h-24.004v-29.776c0-4.142-3.358-7.5-7.5-7.5s-7.5 3.358-7.5 7.5v29.776h-24.004c-9.122-12.468-10.191-29.09-2.353-42.667zm-63.814 57.668h80.382l-80.382 46.409zm0 63.729 110.382-63.729h25.305l-135.688 78.339v-14.61zm0 76.632 90.749-52.394c3.587-2.071 4.816-6.658 2.745-10.245s-6.659-4.816-10.245-2.745l-83.249 48.063v-27.382l165.687-95.659h29.657v10.259l-81.784 47.218c-3.587 2.071-4.816 6.658-2.745 10.245 2.071 3.588 6.66 4.817 10.245 2.745l74.284-42.888v14.61l-195.344 112.783zm0 31.93 195.343-112.781v6.648l-8.728 15.117c-2.567 4.446-4.441 9.13-5.646 13.916l-180.969 104.483zm182.419-46.007-8.933 5.158h-25.305l31.407-18.133c.409 4.409 1.345 8.768 2.831 12.975zm-233.421 106.077c-8.532-8.532-19.935-13.38-31.874-13.688-.308-11.94-5.157-23.343-13.688-31.874-6.041-6.042-13.395-10.218-21.522-12.268 8.292-18.637 9.528-39.922 3.549-59.382 19.501 5.993 40.827 4.741 59.493-3.598 2.054 8.108 6.226 15.444 12.255 21.474 7.552 7.552 17.355 12.211 27.79 13.396v57.659l-14.475-14.475v-32.219c0-4.142-3.358-7.5-7.5-7.5s-7.5 3.358-7.5 7.5v17.219l-22.694-22.694c-2.929-2.929-7.678-2.929-10.606 0-2.929 2.929-2.929 7.678 0 10.606l22.694 22.694h-17.221c-4.142 0-7.5 3.358-7.5 7.5s3.358 7.5 7.5 7.5h32.219l14.332 14.332h-17.22c-4.142 0-7.5 3.358-7.5 7.5s3.358 7.5 7.5 7.5h16.67c-3.211 6.061-5.034 12.965-5.034 20.289 0 1.869.125 3.708.355 5.516-2.405.676-4.724 1.559-6.942 2.62-1.553-9.576-6.047-18.572-13.081-25.607zm31.785 93.389c-15.723 0-28.515-12.792-28.515-28.515s12.792-28.515 28.515-28.515 28.515 12.792 28.515 28.515-12.792 28.515-28.515 28.515zm31.396-58.599c-7.238-7.551-17.159-12.5-28.219-13.303-.187-1.313-.294-2.651-.294-4.016 0-15.723 12.792-28.515 28.515-28.515s28.515 12.792 28.515 28.515c0 1.363-.107 2.7-.294 4.012-11.06.804-20.984 5.757-28.223 13.307zm31.4 58.599c-9.311 0-17.577-4.499-22.782-11.424 2.251-5.25 3.502-11.027 3.502-17.091s-1.251-11.841-3.502-17.091c5.206-6.925 13.471-11.424 22.782-11.424 15.723 0 28.515 12.792 28.515 28.515s-12.792 28.515-28.515 28.515zm77.213-43.328h-36.297c-.564-1.552-1.219-3.059-1.948-4.523l38.245-22.081zm0-43.925-47.215 27.26c-3.386-3.228-7.286-5.919-11.57-7.93l58.785-33.939zm0-31.93-65.452 37.789c-1.042-8.256-4.398-15.799-9.407-21.951l74.859-43.22zm0-44.703-86.994 50.226c-4.82-2.772-10.216-4.644-15.963-5.394l102.957-59.442zm210.343 120.558h-195.343v-22.783h195.344v22.783zm0-86.816h-29.359c-4.143 0-7.5 3.358-7.5 7.5s3.357 7.5 7.5 7.5h29.359v34.032h-195.343v-34.032h130.984c4.143 0 7.5-3.358 7.5-7.5s-3.357-7.5-7.5-7.5h-130.984v-49.165h195.344v49.165z"/></g></svg>